<svg xmlns="http://www.w3.org/2000/svg" viewBox="0 0 45 45" width="45" height="45">
  <g fill="#333333" stroke="#111111" stroke-width="1.5" stroke-linecap="round" stroke-linejoin="round">
    <path d="M 22.5 11.63 L 22.5 6 M 20 8 L 25 8 M 22.5 25 C 22.5 25 27 17.5 25.5 14.5 C 25.5 14.5 24.5 12 22.5 12 C 20.5 12 19.5 14.5 19.5 14.5 C 18 17.5 22.5 25 22.5 25 M 12.5 37 C 18 40.5 27 40.5 32.5 37 L 32.5 30 C 32.5 30 41.5 25.5 38.5 19.5 C 34.5 13 25 16 22.5 23.5 L 22.5 27 L 22.5 23.5 C 20 16 10.5 13 6.5 19.5 C 3.5 25.5 12.5 30 12.5 30 L 12.5 37"/>
  </g>
</svg>