<svg xmlns="http://www.w3.org/2000/svg" viewBox="0 0 45 45" width="45" height="45">
  <g fill="#FFFFFF" stroke="#333333" stroke-width="1.5" stroke-linecap="round" stroke-linejoin="round">
    <path d="M 22.5 9 C 20.29 9 18.5 10.79 18.5 13 C 18.5 15.21 20.29 17 22.5 17 C 24.71 17 26.5 15.21 26.5 13 C 26.5 10.79 24.71 9 22.5 9 Z M 22.5 17 C 18.5 17.5 14.5 20 14.5 24 L 14.5 27 L 30.5 27 L 30.5 24 C 30.5 20 26.5 17.5 22.5 17 Z M 12 31 L 33 31 L 33 34 L 12 34 Z M 11 34 C 15 37 30 37 34 34 L 34 37 C 30 40 15 40 11 37 Z"/>
  </g>
</svg>