<svg xmlns="http://www.w3.org/2000/svg" viewBox="0 0 45 45" width="45" height="45">
  <g fill="#FFFFFF" stroke="#333333" stroke-width="1.5" stroke-linecap="round" stroke-linejoin="round">
    <path d="M 9 26 C 17.5 24.5 30 24.5 36 26 L 38.5 13.5 L 31 25 L 30.7 10.9 L 25.5 24.5 L 22.5 10 L 19.5 24.5 L 14.3 10.9 L 14 25 L 6.5 13.5 L 9 26 Z M 9 26 C 9 28 10.5 28.5 12.5 30 C 14 31.5 14 33 12 33.5 C 16 34.5 25 34.5 33 33.5 C 31 33 31 31.5 32.5 30 C 34.5 28.5 36 28 36 26 M 12.5 30 C 18 35 27 35 32.5 30"/>
  </g>
</svg>